<?xml version="1.0" encoding="UTF-8" standalone="no"?>
<!DOCTYPE svg PUBLIC "-//W3C//DTD SVG 1.1//EN" "http://www.w3.org/Graphics/SVG/1.1/DTD/svg11.dtd">
<!-- Created with Vectornator (http://vectornator.io/) -->
<svg height="100%" stroke-miterlimit="10" style="fill-rule:nonzero;clip-rule:evenodd;stroke-linecap:round;stroke-linejoin:round;" version="1.1" viewBox="0 0 24 24" width="100%" xml:space="preserve" xmlns="http://www.w3.org/2000/svg" xmlns:xlink="http://www.w3.org/1999/xlink">
<defs>
<clipPath id="TextBounds">
<rect height="1" width="0" x="13.6451" y="15.0156"/>
</clipPath>
</defs>
<clipPath id="ArtboardFrame">
<rect height="24" width="24" x="0" y="0"/>
</clipPath>
<g clip-path="url(#ArtboardFrame)" id="Untitled">
<path d="M-0.766727 1.18374L23.2333 1.18374L23.2333 1.18374L23.2333 25.1837L23.2333 25.1837L-0.766727 25.1837L-0.766727 25.1837L-0.766727 1.18374L-0.766727 1.18374Z" fill="#000000" fill-rule="nonzero" opacity="0" stroke="none"/>
<g opacity="1">
<path d="M19.055 21.545C19.5134 21.545 19.885 21.1734 19.885 20.715L19.885 7.41259C19.8841 4.67432 17.664 2.455 14.9257 2.455L4.945 2.455C4.4866 2.455 4.115 2.8266 4.115 3.285L4.115 20.715C4.115 21.1734 4.4866 21.545 4.945 21.545L19.055 21.545Z" fill="none" opacity="1" stroke="#000000" stroke-linecap="round" stroke-linejoin="round" stroke-width="0.83"/>
<path d="M15.735 2.52057L15.735 5.775C15.735 6.2334 16.1066 6.605 16.565 6.605L19.8186 6.605" fill="none" opacity="1" stroke="#000000" stroke-linecap="round" stroke-linejoin="round" stroke-width="0.83"/>
<path d="M9.07757 14.49C9.07757 15.1776 8.52016 15.735 7.83257 15.735L6.58757 15.735L6.58757 13.245L7.83257 13.245C8.52016 13.245 9.07757 13.8024 9.07757 14.49Z" fill="none" opacity="1" stroke="#000000" stroke-linecap="round" stroke-linejoin="round" stroke-width="0.83"/>
<path d="M6.58757 18.2242L6.58757 15.7342" fill="none" opacity="1" stroke="#000000" stroke-linecap="round" stroke-linejoin="round" stroke-width="0.83"/>
<path d="M10.7376 13.245C12.1128 13.245 13.2276 14.3598 13.2276 15.735C13.2276 17.1102 12.1128 18.225 10.7376 18.225L10.7376 13.245Z" fill="none" opacity="1" stroke="#000000" stroke-linecap="round" stroke-linejoin="round" stroke-width="0.83"/>
<path d="M14.8876 18.225L14.8876 14.075C14.8876 13.6166 15.2592 13.245 15.7176 13.245L17.3776 13.245" fill="none" opacity="1" stroke="#000000" stroke-linecap="round" stroke-linejoin="round" stroke-width="0.83"/>
<path d="M14.8876 15.7342L16.5476 15.7342" fill="none" opacity="1" stroke="#000000" stroke-linecap="round" stroke-linejoin="round" stroke-width="0.83"/>
</g>
<path d="M8.27936 5.4388C8.22926 5.60381 8.16518 5.76513 8.08709 5.92278C8.00901 6.08042 7.91398 6.22112 7.80201 6.34488C7.69004 6.46863 7.55965 6.56882 7.41085 6.64543C7.26204 6.72204 7.09188 6.76035 6.90035 6.76035C6.77659 6.75445 6.67862 6.7434 6.60643 6.7272C6.53424 6.71099 6.46425 6.68668 6.39648 6.65427C6.27567 6.61891 6.17181 6.56219 6.08488 6.4841C5.99796 6.40602 5.92503 6.31541 5.8661 6.21228C5.80716 6.10915 5.76223 5.99939 5.73129 5.883C5.70035 5.76661 5.68046 5.6539 5.67162 5.54488C5.65689 5.35335 5.67309 5.15887 5.72024 4.96145C5.76739 4.76403 5.84252 4.58208 5.94565 4.4156C6.04879 4.24911 6.17844 4.1062 6.3346 3.98687C6.49077 3.86753 6.66904 3.78871 6.86941 3.7504C6.97254 3.73272 7.07715 3.72683 7.18322 3.73272C7.2893 3.73862 7.39243 3.75924 7.49262 3.7946C7.57512 3.82407 7.65173 3.85795 7.72245 3.89626C7.79317 3.93456 7.86094 3.98318 7.92576 4.04211C8.01122 4.11873 8.08341 4.20712 8.14234 4.30731C8.20127 4.40749 8.244 4.5121 8.27052 4.62112C8.30293 4.75961 8.31766 4.89663 8.31472 5.03217C8.31177 5.16771 8.29998 5.30326 8.27936 5.4388ZM7.1346 6.18576C7.223 6.14746 7.30035 6.09663 7.36665 6.03327C7.43295 5.96992 7.49114 5.89994 7.54123 5.82333C7.59133 5.74672 7.63332 5.66495 7.6672 5.57803C7.70109 5.4911 7.73129 5.40344 7.75781 5.31504C7.77549 5.20307 7.78507 5.08815 7.78654 4.97029C7.78801 4.85243 7.7637 4.74046 7.71361 4.63438C7.67236 4.54598 7.60974 4.47011 7.52576 4.40676C7.44179 4.3434 7.34971 4.2992 7.24952 4.27416C7.14934 4.24911 7.04842 4.24396 6.94676 4.25869C6.8451 4.27342 6.75449 4.3132 6.67494 4.37803C6.56297 4.47232 6.47236 4.57766 6.40311 4.69405C6.33387 4.81044 6.28157 4.93935 6.24621 5.08079C6.21674 5.19276 6.20053 5.31062 6.19759 5.43438C6.19464 5.55814 6.21379 5.676 6.25505 5.78797C6.28746 5.87048 6.33534 5.94561 6.39869 6.01339C6.46204 6.08116 6.5335 6.1342 6.61306 6.1725C6.69262 6.21081 6.77733 6.23217 6.8672 6.23659C6.95707 6.24101 7.04621 6.22407 7.1346 6.18576Z" fill="#000000" fill-rule="nonzero" opacity="1" stroke="none"/>
<path d="M10.3479 5.78797C10.395 5.74083 10.4488 5.71357 10.5092 5.7062C10.5696 5.69884 10.6248 5.70694 10.6749 5.73051C10.725 5.75408 10.7641 5.79165 10.7921 5.84322C10.8201 5.89478 10.8267 5.95593 10.812 6.02664C10.7943 6.09736 10.7604 6.16292 10.7103 6.22333C10.6602 6.28374 10.6101 6.33898 10.56 6.38908C10.4451 6.50989 10.3177 6.59902 10.1777 6.65648C10.0377 6.71394 9.8963 6.74119 9.75339 6.73825C9.61048 6.7353 9.47052 6.70141 9.3335 6.63659C9.19648 6.57176 9.07346 6.47453 8.96444 6.34488C8.89961 6.26827 8.8451 6.18723 8.8009 6.10178C8.7567 6.01633 8.72282 5.92646 8.69925 5.83217C8.66389 5.69368 8.64768 5.5493 8.65063 5.39902C8.65357 5.24874 8.67715 5.10289 8.72134 4.96145C8.76554 4.82002 8.82816 4.68668 8.90919 4.56145C8.99022 4.43622 9.08967 4.32941 9.20753 4.24101C9.29298 4.17618 9.37917 4.1202 9.4661 4.07305C9.55302 4.02591 9.6451 3.98171 9.74234 3.94046C9.79832 3.91688 9.85578 3.89405 9.91472 3.87195C9.97365 3.84985 10.0341 3.83291 10.0959 3.82112C10.1578 3.80933 10.2197 3.80491 10.2816 3.80786C10.3434 3.81081 10.4038 3.82407 10.4628 3.84764C10.504 3.86532 10.5453 3.88963 10.5865 3.92057C10.6278 3.95151 10.6661 3.98687 10.7015 4.02664C10.7368 4.06642 10.7678 4.10841 10.7943 4.15261C10.8208 4.19681 10.8399 4.23954 10.8517 4.28079C10.8606 4.31909 10.8628 4.35814 10.8584 4.39792C10.8539 4.43769 10.8422 4.47379 10.823 4.5062C10.8038 4.53862 10.7781 4.56587 10.7457 4.58797C10.7132 4.61007 10.6764 4.62407 10.6352 4.62996C10.5674 4.6388 10.5151 4.63143 10.4783 4.60786C10.4414 4.58429 10.412 4.55482 10.3899 4.51946C10.3678 4.4841 10.3464 4.44948 10.3258 4.4156C10.3051 4.38171 10.2757 4.3574 10.2374 4.34267C10.2138 4.34267 10.1961 4.34414 10.1843 4.34709C10.0841 4.37361 9.98322 4.4097 9.88157 4.45537C9.77991 4.50105 9.68562 4.55629 9.59869 4.62112C9.51177 4.68595 9.43589 4.76108 9.37107 4.84653C9.30624 4.93199 9.2591 5.02775 9.22963 5.13383C9.19427 5.26053 9.18101 5.38871 9.18985 5.51836C9.19869 5.64801 9.23405 5.77029 9.29593 5.88521C9.33129 5.95298 9.37844 6.01191 9.43737 6.062C9.4963 6.1121 9.56112 6.14967 9.63184 6.17471C9.70256 6.19976 9.77475 6.2086 9.84842 6.20123C9.92208 6.19386 9.9928 6.16808 10.0606 6.12388C10.1195 6.08263 10.1725 6.0318 10.2197 5.9714C10.2668 5.91099 10.3096 5.84985 10.3479 5.78797Z" fill="#000000" fill-rule="nonzero" opacity="1" stroke="none"/>
<path d="M11.8374 6.45537C11.8285 6.52904 11.7976 6.58944 11.7445 6.63659C11.6915 6.68374 11.6341 6.71394 11.5722 6.7272C11.5103 6.74046 11.4536 6.73383 11.402 6.70731C11.3504 6.68079 11.3232 6.62775 11.3202 6.54819C11.3055 6.20933 11.2981 5.85795 11.2981 5.49405C11.2981 5.13014 11.2981 4.76845 11.2981 4.40897C11.251 4.39129 11.2156 4.36477 11.1921 4.32941C11.1685 4.29405 11.1545 4.25501 11.1501 4.21228C11.1457 4.16955 11.1508 4.12609 11.1655 4.08189C11.1803 4.03769 11.2024 3.99939 11.2318 3.96698C11.2643 3.93162 11.3085 3.8992 11.3644 3.86974C11.4204 3.84027 11.4816 3.81302 11.5479 3.78797C11.6142 3.76292 11.6797 3.74156 11.7445 3.72388C11.8094 3.7062 11.8639 3.69294 11.9081 3.6841C12.0937 3.6458 12.2808 3.64653 12.4694 3.68631C12.658 3.72609 12.8237 3.79755 12.9666 3.90068C13.1096 4.00381 13.2164 4.13788 13.2871 4.30289C13.3578 4.4679 13.3652 4.65648 13.3092 4.86863C13.2915 4.92757 13.2694 4.9865 13.2429 5.04543C13.2164 5.10436 13.1854 5.15887 13.1501 5.20897C13.1 5.28558 13.0411 5.35335 12.9733 5.41228C12.9055 5.47121 12.8318 5.52572 12.7523 5.57582C12.8083 5.63475 12.8613 5.69663 12.9114 5.76145C12.9615 5.82628 13.0175 5.88521 13.0794 5.93825C13.1029 5.95887 13.1376 5.99129 13.1832 6.03548C13.2289 6.07968 13.2731 6.12683 13.3158 6.17692C13.3585 6.22701 13.3961 6.27637 13.4285 6.32499C13.4609 6.37361 13.4757 6.41412 13.4727 6.44653C13.4698 6.50252 13.4543 6.55335 13.4263 6.59902C13.3983 6.64469 13.3644 6.68005 13.3247 6.7051C13.2849 6.73014 13.2414 6.74267 13.1943 6.74267C13.1471 6.74267 13.1 6.72646 13.0528 6.69405C12.9998 6.6528 12.9497 6.60418 12.9026 6.54819C12.8554 6.49221 12.8097 6.44064 12.7655 6.3935C12.6683 6.28742 12.5733 6.1806 12.4805 6.07305C12.3876 5.9655 12.2926 5.86016 12.1954 5.75703C12.1364 5.76882 12.0768 5.77692 12.0164 5.78134C11.956 5.78576 11.8963 5.79092 11.8374 5.79681L11.8374 6.42443L11.8374 6.45537ZM12.6285 4.31615C12.5107 4.24543 12.3818 4.20565 12.2418 4.19681C12.1018 4.18797 11.967 4.20712 11.8374 4.25427L11.8374 5.25316C11.97 5.24432 12.1004 5.22738 12.2285 5.20234C12.3567 5.17729 12.4753 5.12204 12.5843 5.03659C12.6433 4.98944 12.6911 4.9342 12.728 4.87084C12.7648 4.80749 12.7869 4.74267 12.7943 4.67637C12.8016 4.61007 12.7928 4.54525 12.7678 4.48189C12.7427 4.41854 12.6963 4.36329 12.6285 4.31615Z" fill="#000000" fill-rule="nonzero" opacity="1" stroke="none"/>
<path d="M9.40769 10.5228C9.39885 10.5876 9.37528 10.6429 9.33697 10.6885C9.29867 10.7342 9.25447 10.7659 9.20437 10.7836C9.15428 10.8012 9.10272 10.802 9.04968 10.7858C8.99664 10.7696 8.95244 10.7305 8.91708 10.6687C8.88762 10.6186 8.87067 10.5663 8.86625 10.5117C8.86183 10.4572 8.85668 10.4005 8.85078 10.3416C8.84489 10.2768 8.83826 10.22 8.83089 10.1714C8.82353 10.1228 8.81542 10.0661 8.80658 10.0012C8.78006 9.82445 8.7506 9.64987 8.71819 9.47749C8.68577 9.30512 8.64894 9.132 8.60769 8.95815C8.54876 9.10548 8.49277 9.25134 8.43973 9.39572C8.38669 9.54011 8.33366 9.68596 8.28062 9.83329C8.23936 9.94232 8.19885 10.0521 8.15907 10.1626C8.11929 10.2731 8.07288 10.3799 8.01984 10.483C8.00216 10.5184 7.9727 10.5471 7.93145 10.5692C7.89019 10.5913 7.84599 10.6038 7.79885 10.6068C7.7517 10.6097 7.7075 10.6031 7.66625 10.5869C7.625 10.5707 7.59406 10.5434 7.57343 10.5051C7.44673 10.2605 7.3215 10.0175 7.19774 9.77583C7.07399 9.53421 6.95023 9.29112 6.82647 9.04655C6.81174 9.19683 6.79848 9.34784 6.78669 9.49959C6.77491 9.65134 6.76165 9.80235 6.74692 9.95263C6.74397 9.99978 6.74102 10.0572 6.73808 10.125C6.73513 10.1928 6.72997 10.2613 6.72261 10.3305C6.71524 10.3998 6.7064 10.4661 6.69609 10.5294C6.68577 10.5928 6.66883 10.6421 6.64526 10.6775C6.6099 10.7364 6.56349 10.7747 6.50603 10.7924C6.44857 10.8101 6.39259 10.8116 6.33808 10.7968C6.28356 10.7821 6.23789 10.7519 6.20106 10.7062C6.16423 10.6605 6.14728 10.6024 6.15023 10.5316C6.15612 10.4108 6.16644 10.2915 6.18117 10.1736C6.1959 10.0558 6.20916 9.93642 6.22095 9.81561C6.24452 9.55337 6.26883 9.29259 6.29388 9.03329C6.31892 8.77399 6.34323 8.51175 6.36681 8.24655C6.3727 8.16994 6.38817 8.09922 6.41321 8.0344C6.43826 7.96957 6.49204 7.9239 6.57454 7.89738C6.60695 7.88559 6.64084 7.88118 6.6762 7.88412C6.71156 7.88707 6.74397 7.89738 6.77343 7.91506C6.83826 7.95631 6.88909 8.01304 6.92592 8.08523C6.96275 8.15742 6.99738 8.22593 7.02979 8.29075C7.08577 8.39683 7.14029 8.50364 7.19332 8.61119C7.24636 8.71874 7.2994 8.82556 7.35244 8.93164C7.41727 9.06718 7.48283 9.20051 7.54913 9.33164C7.61542 9.46276 7.68393 9.59462 7.75465 9.72722C7.77233 9.68302 7.78927 9.63882 7.80548 9.59462C7.82169 9.55042 7.83863 9.50622 7.85631 9.46202C7.88872 9.38541 7.91892 9.30806 7.94692 9.22998C7.97491 9.15189 8.00364 9.07455 8.0331 8.99793C8.07436 8.89775 8.1134 8.79904 8.15023 8.7018C8.18706 8.60456 8.22316 8.50585 8.25852 8.40567C8.28798 8.332 8.31598 8.25245 8.3425 8.16699C8.36902 8.08154 8.41174 8.00935 8.47067 7.95042C8.51192 7.90622 8.55686 7.8797 8.60548 7.87086C8.6541 7.86202 8.69977 7.86571 8.7425 7.88191C8.78522 7.89812 8.82353 7.92537 8.85741 7.96368C8.8913 8.00199 8.91561 8.04618 8.93034 8.09628C8.94802 8.16405 8.96865 8.24066 8.99222 8.32611C9.01579 8.41156 9.03642 8.48817 9.0541 8.55594C9.08651 8.6797 9.11598 8.80125 9.1425 8.92059C9.16902 9.03992 9.19406 9.16147 9.21763 9.28523C9.25889 9.48854 9.29498 9.68965 9.32592 9.88854C9.35686 10.0874 9.38412 10.2885 9.40769 10.4919L9.40769 10.5228Z" fill="#000000" fill-rule="nonzero" opacity="1" stroke="none"/>
<path d="M11.127 8.68854C11.1624 8.62961 11.2066 8.58909 11.2596 8.56699C11.3127 8.5449 11.365 8.53974 11.4165 8.55152C11.4681 8.56331 11.5138 8.58983 11.5535 8.63108C11.5933 8.67234 11.6176 8.72685 11.6265 8.79462C11.6324 8.84471 11.6228 8.91543 11.5977 9.00677C11.5727 9.09812 11.5418 9.19241 11.5049 9.28965C11.4681 9.38688 11.4305 9.4797 11.3922 9.5681C11.3539 9.6565 11.323 9.72574 11.2994 9.77583C11.1992 9.99683 11.0902 10.2134 10.9723 10.4256C10.8545 10.6377 10.7337 10.8484 10.6099 11.0576C10.5922 11.09 10.5716 11.1298 10.548 11.1769C10.5244 11.2241 10.5001 11.2727 10.4751 11.3228C10.45 11.3729 10.4243 11.42 10.3977 11.4642C10.3712 11.5084 10.3462 11.5408 10.3226 11.5615C10.2696 11.6116 10.2151 11.641 10.1591 11.6499C10.1031 11.6587 10.0523 11.6513 10.0066 11.6278C9.96091 11.6042 9.92408 11.5674 9.89609 11.5173C9.86809 11.4672 9.85704 11.4068 9.86294 11.3361C9.86588 11.3095 9.87767 11.2749 9.8983 11.2322C9.91892 11.1895 9.9425 11.1453 9.96902 11.0996C9.99553 11.0539 10.0221 11.0105 10.0486 10.9692C10.0751 10.928 10.0957 10.8941 10.1105 10.8675C10.1694 10.7703 10.2261 10.6731 10.2806 10.5758C10.3351 10.4786 10.3904 10.3814 10.4464 10.2841C10.2519 10.1221 10.0832 9.94158 9.94029 9.74269C9.79738 9.54379 9.68762 9.32501 9.611 9.08633C9.59627 9.04508 9.58154 9.00383 9.56681 8.96257C9.55207 8.92132 9.54765 8.8786 9.55355 8.8344C9.55944 8.78431 9.57343 8.73937 9.59553 8.69959C9.61763 8.65981 9.64636 8.6274 9.68172 8.60235C9.71708 8.57731 9.7576 8.56331 9.80327 8.56036C9.84894 8.55742 9.89535 8.56773 9.9425 8.5913C9.9808 8.61193 10.011 8.64066 10.0331 8.67749C10.0552 8.71432 10.0736 8.7541 10.0884 8.79683C10.1031 8.83955 10.1156 8.88302 10.1259 8.92722C10.1362 8.97141 10.1488 9.01119 10.1635 9.04655C10.2814 9.33827 10.4596 9.58725 10.6983 9.79351C10.7837 9.61672 10.8604 9.43919 10.9281 9.26092C10.9959 9.08265 11.0563 8.9007 11.1093 8.71506L11.127 8.68854Z" fill="#000000" fill-rule="nonzero" opacity="1" stroke="none"/>
<g fill="#000000" opacity="1" stroke="none"/>
</g>
</svg>
