<?xml version="1.0" encoding="UTF-8" standalone="no"?>
<!DOCTYPE svg PUBLIC "-//W3C//DTD SVG 1.1//EN" "http://www.w3.org/Graphics/SVG/1.1/DTD/svg11.dtd">
<!-- Created with Vectornator (http://vectornator.io/) -->
<svg height="100%" stroke-miterlimit="10" style="fill-rule:nonzero;clip-rule:evenodd;stroke-linecap:round;stroke-linejoin:round;" version="1.1" viewBox="0 0 1397 637" width="100%" xml:space="preserve" xmlns="http://www.w3.org/2000/svg" xmlns:xlink="http://www.w3.org/1999/xlink">
<defs>
<path d="M934.9 25L1044.17 25L1153.45 25L1262.72 25L1262.83 25C1323.12 25 1372 78.0678 1372 143.53L1372 171.75L1372 318.5L1372 465.25L1372 612L1262.72 612L1153.45 612L1044.17 612L934.9 612L934.9 465.25L934.9 318.5L934.9 171.75L934.9 25Z" id="Fill"/>
<path d="M1247.11 137.404L1372 137.404L1372 137.234C1372 75.2489 1321.75 25 1259.77 25L1247.11 25L1247.11 137.404Z" id="Fill_2"/>
<clipPath id="TextBounds">
<rect height="239.03" width="346.772" x="859.968" y="266.788"/>
</clipPath>
<clipPath id="TextBounds_2">
<rect height="247.031" width="375.04" x="26.8219" y="254.143"/>
</clipPath>
<clipPath id="TextBounds_3">
<rect height="247.031" width="279.286" x="481.447" y="252.894"/>
</clipPath>
</defs>
<g id="Ebene-1">
<g opacity="1">
<use fill="#ffffff" fill-rule="nonzero" stroke="none" xlink:href="#Fill"/>
<mask height="635" id="StrokeMask" maskUnits="userSpaceOnUse" width="485.1" x="910.9" y="1">
<rect fill="#ffffff" height="635" stroke="none" width="485.1" x="910.9" y="1"/>
<use fill="#000000" fill-rule="evenodd" stroke="none" xlink:href="#Fill"/>
</mask>
<use fill="none" mask="url(#StrokeMask)" stroke="#ffffff" stroke-linecap="butt" stroke-linejoin="round" stroke-width="48" xlink:href="#Fill"/>
</g>
<g opacity="1">
<mask height="160.404" id="StrokeMask_2" maskUnits="userSpaceOnUse" width="172.886" x="1223.11" y="1">
<rect fill="#ffffff" height="160.404" stroke="none" width="172.886" x="1223.11" y="1"/>
<use fill="#000000" fill-rule="evenodd" stroke="none" xlink:href="#Fill_2"/>
</mask>
<use fill="none" mask="url(#StrokeMask_2)" stroke="#ffffff" stroke-linecap="butt" stroke-linejoin="round" stroke-width="48" xlink:href="#Fill_2"/>
</g>
<path d="M827.292 259.679L1239.42 259.679L1239.42 499.925L827.292 499.925L827.292 259.679Z" fill="#ec0014" fill-rule="nonzero" opacity="1" stroke="none"/>
<g fill="#ffffff" opacity="1" stroke="none">
<path clip-path="url(#TextBounds)" d="M930.746 323.487L874.487 323.487L874.487 456.788L906.518 456.788L906.518 415.421L930.366 415.421C940.604 415.421 949.213 413.39 956.193 409.327C963.174 405.264 968.449 399.776 972.018 392.862C975.588 385.948 977.373 378.23 977.373 369.707C977.373 361.27 975.609 353.558 972.082 346.57C968.556 339.583 963.344 333.989 956.447 329.788C949.551 325.587 940.984 323.487 930.746 323.487ZM944.853 369.707C944.853 374.91 943.832 379.098 941.791 382.274C939.75 385.449 936.835 387.746 933.047 389.165C929.258 390.584 924.757 391.294 919.545 391.294L906.392 391.294L906.392 348.121L923.305 348.121C929.949 348.121 935.202 349.967 939.062 353.66C942.923 357.354 944.853 362.703 944.853 369.707Z"/>
<path clip-path="url(#TextBounds)" d="M989.409 323.487L989.409 456.788L1041.68 456.788C1055.39 456.788 1066.7 454.08 1075.59 448.666C1084.48 443.251 1091.09 435.511 1095.42 425.445C1099.75 415.38 1101.92 403.425 1101.92 389.58C1101.92 375.863 1099.78 364.067 1095.52 354.192C1091.25 344.318 1084.68 336.732 1075.81 331.434C1066.94 326.136 1055.56 323.487 1041.68 323.487L989.409 323.487ZM1021.5 348.946L1036.59 348.946C1044.97 348.946 1051.51 350.756 1056.21 354.376C1060.91 357.996 1064.21 362.928 1066.12 369.173C1068.03 375.418 1068.98 382.474 1068.98 390.342C1068.98 398.582 1068.18 405.365 1066.58 410.692C1064.98 416.019 1062.74 420.186 1059.85 423.194C1056.95 426.202 1053.53 428.31 1049.58 429.517C1045.62 430.725 1041.29 431.328 1036.59 431.328L1021.5 431.328L1021.5 348.946Z"/>
<path clip-path="url(#TextBounds)" d="M1148.52 456.788L1148.52 406.486L1200.06 406.486L1200.06 381.47L1148.52 381.47L1148.52 349.264L1205.2 349.264L1205.2 323.487L1116.43 323.487L1116.43 456.788L1148.52 456.788Z"/>
</g>
<g opacity="1">
<path d="M26.8219 293.838L409.611 293.838L409.611 458.981L26.8219 458.981L26.8219 293.838Z" fill="#87b8d8" fill-rule="nonzero" opacity="1" stroke="none"/>
<g fill="#ffffff" opacity="1" stroke="none">
<path clip-path="url(#TextBounds_2)" d="M122.003 369.753L122.003 385.773C122.003 393.475 120.878 399.911 118.627 405.08C116.377 410.25 113.26 414.112 109.279 416.668C105.297 419.223 100.659 420.501 95.3629 420.501C90.0895 420.501 85.446 419.223 81.4324 416.668C77.4189 414.112 74.2865 410.25 72.0353 405.08C69.7841 399.911 68.6585 393.475 68.6585 385.773L68.6585 369.753C68.6585 362.028 69.7841 355.557 72.0353 350.341C74.2865 345.124 77.4189 341.188 81.4324 338.532C85.446 335.876 90.0895 334.548 95.3629 334.548C100.659 334.548 105.297 335.876 109.279 338.532C113.26 341.188 116.377 345.124 118.627 350.341C120.878 355.557 122.003 362.028 122.003 369.753ZM154.733 385.647L154.733 370.135C154.733 357.546 152.404 346.643 147.746 337.427C143.087 328.21 136.343 321.077 127.513 316.028C118.683 310.979 107.99 308.454 95.4316 308.454C82.9153 308.454 72.2202 310.957 63.3462 315.964C54.4722 320.97 47.6843 328.093 42.9826 337.331C38.2808 346.57 35.93 357.504 35.93 370.135L35.93 385.647C35.93 398.127 38.2696 408.936 42.949 418.074C47.6284 427.211 54.3933 434.249 63.244 439.187C72.0946 444.124 82.778 446.593 95.2943 446.593C107.853 446.593 118.559 444.124 127.412 439.187C136.264 434.249 143.031 427.211 147.712 418.074C152.393 408.936 154.733 398.127 154.733 385.647Z"/>
<path clip-path="url(#TextBounds_2)" d="M197.761 370.568C197.761 362.869 198.754 356.383 200.739 351.11C202.725 345.837 205.611 341.832 209.396 339.096C213.182 336.36 217.763 334.992 223.141 334.992C228.02 334.992 232.204 336.077 235.69 338.247C239.177 340.417 241.86 343.399 243.74 347.195C245.62 350.99 246.582 355.322 246.627 360.192L277.228 360.192C277.228 359.557 277.228 358.933 277.228 358.32C277.228 357.706 277.228 357.082 277.228 356.447C277.228 349.24 275.886 342.697 273.202 336.816C270.518 330.936 266.758 325.878 261.921 321.641C257.084 317.404 251.349 314.147 244.717 311.87C238.084 309.593 230.808 308.454 222.887 308.454C210.534 308.454 200.05 310.985 191.434 316.047C182.819 321.109 176.271 328.276 171.789 337.549C167.307 346.821 165.066 357.849 165.066 370.632L165.066 384.661C165.066 397.333 167.307 408.299 171.789 417.558C176.271 426.818 182.819 433.972 191.434 439.02C200.05 444.069 210.534 446.593 222.887 446.593C233.424 446.593 242.783 444.617 250.964 440.664C259.144 436.711 265.567 431.201 270.232 424.133C274.896 417.066 277.228 408.861 277.228 399.518C277.228 398.884 277.228 398.238 277.228 397.583C277.228 396.927 277.228 396.282 277.228 395.647L246.627 395.647C246.582 400.335 245.62 404.519 243.74 408.201C241.86 411.882 239.177 414.778 235.69 416.889C232.204 419 228.02 420.055 223.141 420.055C217.763 420.055 213.182 418.699 209.396 415.986C205.611 413.273 202.725 409.297 200.739 404.057C198.754 398.818 197.761 392.415 197.761 384.85L197.761 370.568Z"/>
<path clip-path="url(#TextBounds_2)" d="M348.678 310.842L292.365 310.842L292.365 444.143L323.888 444.143L323.888 396.496L342.345 396.496L364.928 444.143L400.446 444.143L373.897 392.003C376.961 390.741 380.355 388.564 384.079 385.473C387.803 382.383 391.018 378.273 393.725 373.144C396.432 368.016 397.785 361.784 397.785 354.45C397.785 346.091 395.976 338.621 392.358 332.039C388.739 325.457 383.303 320.278 376.049 316.504C368.795 312.729 359.671 310.842 348.678 310.842ZM323.888 373.766L323.888 334.905L343.932 334.905C349.733 334.905 354.643 336.552 358.663 339.846C362.683 343.14 364.693 348.091 364.693 354.699C364.693 361.014 362.761 365.771 358.895 368.969C355.029 372.167 349.951 373.766 343.659 373.766L323.888 373.766Z"/>
</g>
<path d="M26.8219 282.646L26.8219 356.634L26.8219 409.39L26.8219 458.981" fill="none" opacity="1" stroke="#3897f1" stroke-linecap="butt" stroke-linejoin="round" stroke-width="8"/>
<path d="M409.611 293.838L409.611 475.097" fill="none" opacity="1" stroke="#3897f1" stroke-linecap="butt" stroke-linejoin="miter" stroke-width="8"/>
<path d="M382.789 485.805C382.789 470.991 394.798 458.981 409.611 458.981C424.425 458.981 436.433 470.991 436.433 485.805C436.433 500.619 424.425 512.628 409.611 512.628C394.798 512.628 382.789 500.619 382.789 485.805Z" fill="#358fe4" fill-rule="nonzero" opacity="1" stroke="none"/>
<path d="M0 267.015C0 252.2 12.0086 240.191 26.8219 240.191C41.6353 240.191 53.6438 252.2 53.6438 267.015C53.6438 281.829 41.6353 293.838 26.8219 293.838C12.0086 293.838 0 281.829 0 267.015Z" fill="#358fe4" fill-rule="nonzero" opacity="1" stroke="none"/>
</g>
<g fill="#ffffff" opacity="1" stroke="none">
<path clip-path="url(#TextBounds_3)" d="M494.344 442.894L525.419 442.894L525.419 381.337C525.419 376.783 526.137 373.117 527.574 370.338C529.011 367.559 530.916 365.538 533.289 364.273C535.662 363.009 538.257 362.377 541.073 362.377C543.881 362.377 546.466 362.972 548.826 364.163C551.186 365.355 553.087 367.324 554.529 370.072C555.972 372.819 556.693 376.609 556.693 381.439L556.693 442.894L586.434 442.894L586.434 381.533C586.434 377.264 587.086 373.719 588.389 370.897C589.693 368.075 591.531 365.95 593.905 364.521C596.278 363.091 599.04 362.377 602.19 362.377C605.111 362.377 607.74 363 610.077 364.247C612.414 365.493 614.27 367.472 615.645 370.184C617.021 372.895 617.708 376.453 617.708 380.858L617.708 442.894L648.783 442.894L648.783 371.425C648.783 361.194 645.892 352.911 640.111 346.578C634.329 340.246 626.129 337.079 615.511 337.079C609.596 337.079 604.459 338.018 600.101 339.897C595.742 341.775 592.216 344.125 589.522 346.947C586.829 349.769 584.968 352.656 583.939 355.609L582.683 355.609C581.612 351.928 579.827 348.703 577.329 345.934C574.831 343.165 571.644 340.997 567.769 339.43C563.893 337.863 559.308 337.079 554.012 337.079C548.443 337.079 543.742 338.011 539.911 339.875C536.079 341.738 533.034 344.045 530.775 346.796C528.515 349.547 526.948 352.242 526.072 354.882L524.529 354.882L524.529 338.613L494.344 338.613L494.344 442.894Z"/>
<path clip-path="url(#TextBounds_3)" d="M760.696 338.613L727.693 338.613L708.377 416.835L707.191 416.835L688.572 338.613L654.28 338.613L688.91 442.397L688.328 444.892C687.781 449.283 686.078 452.459 683.218 454.421C680.359 456.382 675.999 457.363 670.14 457.363C668.437 457.363 666.738 457.303 665.042 457.184C663.346 457.065 662.054 456.909 661.165 456.717L661.165 478.177C662.894 478.522 665.243 478.823 668.211 479.08C671.179 479.338 673.951 479.467 676.527 479.467C689.3 479.467 699.492 476.858 707.103 471.64C714.714 466.422 720.885 457.522 725.618 444.94L728.254 437.938C729.41 434.696 731.026 429.947 733.104 423.69C735.181 417.434 737.639 409.971 740.477 401.303C743.315 392.634 746.439 383.003 749.849 372.409C753.258 361.814 756.874 350.549 760.696 338.613Z"/>
</g>
</g>
</svg>
