<?xml version="1.0" encoding="UTF-8" standalone="no"?>
<!DOCTYPE svg PUBLIC "-//W3C//DTD SVG 1.1//EN" "http://www.w3.org/Graphics/SVG/1.1/DTD/svg11.dtd">
<!-- Created with Vectornator (http://vectornator.io/) -->
<svg height="100%" stroke-miterlimit="10" style="fill-rule:nonzero;clip-rule:evenodd;stroke-linecap:round;stroke-linejoin:round;" version="1.1" viewBox="0 0 1024 1024" width="100%" xml:space="preserve" xmlns="http://www.w3.org/2000/svg" xmlns:xlink="http://www.w3.org/1999/xlink">
<defs>
<path d="M140 40L315 40L490 40L665 40L665.175 40C761.728 40 840 124.981 840 229.81L840 275L840 510L840 745L840 980L665 980L490 980L315 980L140 980L140 745L140 510L140 275L140 40Z" id="Fill"/>
<path d="M640 220L840 220L840 219.728C840 120.467 759.533 40 660.272 40L640 40L640 220Z" id="Fill_2"/>
<clipPath id="TextBounds">
<rect height="240" width="660" x="20" y="700"/>
</clipPath>
<clipPath id="TextBounds_2">
<rect height="497" width="429.63" x="180" y="140"/>
</clipPath>
</defs>
<g id="Ebene-1">
<g opacity="1">
<use fill="#ffffff" fill-rule="nonzero" stroke="none" xlink:href="#Fill"/>
<mask height="988" id="StrokeMask" maskUnits="userSpaceOnUse" width="748" x="116" y="16">
<rect fill="#ffffff" height="988" stroke="none" width="748" x="116" y="16"/>
<use fill="#000000" fill-rule="evenodd" stroke="none" xlink:href="#Fill"/>
</mask>
<use fill="none" mask="url(#StrokeMask)" stroke="#000000" stroke-linecap="butt" stroke-linejoin="round" stroke-width="48" xlink:href="#Fill"/>
</g>
<g opacity="1">
<mask height="228" id="StrokeMask_2" maskUnits="userSpaceOnUse" width="248" x="616" y="16">
<rect fill="#ffffff" height="228" stroke="none" width="248" x="616" y="16"/>
<use fill="#000000" fill-rule="evenodd" stroke="none" xlink:href="#Fill_2"/>
</mask>
<use fill="none" mask="url(#StrokeMask_2)" stroke="#000000" stroke-linecap="butt" stroke-linejoin="round" stroke-width="48" xlink:href="#Fill_2"/>
</g>
<path d="M20 700L680 700L680 940L20 940L20 700Z" fill="#ec0014" fill-rule="nonzero" opacity="1" stroke="none"/>
<g fill="#ffffff" opacity="1" stroke="none">
<path clip-path="url(#TextBounds)" d="M247.392 756.699L191.133 756.699L191.133 890L223.164 890L223.164 848.633L247.012 848.633C257.25 848.633 265.859 846.602 272.839 842.539C279.82 838.476 285.095 832.988 288.664 826.074C292.234 819.16 294.019 811.442 294.019 802.92C294.019 794.483 292.255 786.77 288.728 779.783C285.202 772.795 279.99 767.201 273.093 763C266.197 758.8 257.63 756.699 247.392 756.699ZM261.499 802.92C261.499 808.122 260.478 812.311 258.437 815.486C256.396 818.661 253.481 820.959 249.693 822.378C245.904 823.797 241.403 824.506 236.191 824.506L223.038 824.506L223.038 781.333L239.951 781.333C246.595 781.333 251.848 783.18 255.708 786.873C259.569 790.566 261.499 795.915 261.499 802.92Z"/>
<path clip-path="url(#TextBounds)" d="M306.055 756.699L306.055 890L358.326 890C372.039 890 383.342 887.293 392.234 881.878C401.125 876.463 407.737 868.723 412.068 858.658C416.399 848.592 418.564 836.637 418.564 822.793C418.564 809.075 416.43 797.279 412.163 787.404C407.896 777.53 401.327 769.944 392.456 764.646C383.586 759.348 372.209 756.699 358.326 756.699L306.055 756.699ZM338.149 782.159L353.232 782.159C361.617 782.159 368.159 783.968 372.856 787.588C377.554 791.208 380.857 796.141 382.766 802.386C384.675 808.63 385.63 815.687 385.63 823.554C385.63 831.794 384.83 838.577 383.23 843.904C381.631 849.231 379.384 853.398 376.492 856.406C373.599 859.414 370.176 861.522 366.223 862.729C362.269 863.937 357.939 864.541 353.232 864.541L338.149 864.541L338.149 782.159Z"/>
<path clip-path="url(#TextBounds)" d="M465.165 890L465.165 839.698L516.71 839.698L516.71 814.683L465.165 814.683L465.165 782.476L521.85 782.476L521.85 756.699L433.072 756.699L433.072 890L465.165 890Z"/>
</g>
<path d="M180 179.69L562.766 179.69L562.766 344.813L180 344.813L180 179.69Z" fill="#87b8d8" fill-rule="nonzero" opacity="1" stroke="none"/>
<g fill="#000000" opacity="1" stroke="none">
<path clip-path="url(#TextBounds_2)" d="M275.181 255.61L275.181 271.631C275.181 279.332 274.056 285.768 271.805 290.938C269.555 296.107 266.439 299.97 262.457 302.525C258.476 305.08 253.837 306.358 248.541 306.358C243.268 306.358 238.624 305.08 234.611 302.525C230.597 299.97 227.465 296.107 225.213 290.938C222.962 285.768 221.837 279.332 221.837 271.631L221.837 255.61C221.837 247.885 222.962 241.415 225.213 236.198C227.465 230.982 230.597 227.045 234.611 224.389C238.624 221.733 243.268 220.405 248.541 220.405C253.837 220.405 258.476 221.733 262.457 224.389C266.439 227.045 269.555 230.982 271.805 236.198C274.056 241.415 275.181 247.885 275.181 255.61ZM307.911 271.504L307.911 255.992C307.911 243.403 305.582 232.501 300.924 223.284C296.265 214.067 289.521 206.934 280.691 201.885C271.862 196.836 261.168 194.311 248.61 194.311C236.093 194.311 225.398 196.814 216.524 201.821C207.65 206.827 200.862 213.95 196.161 223.188C191.459 232.427 189.108 243.362 189.108 255.992L189.108 271.504C189.108 283.985 191.448 294.794 196.127 303.931C200.806 313.069 207.571 320.106 216.422 325.044C225.273 329.982 235.956 332.451 248.472 332.451C261.031 332.451 271.737 329.982 280.59 325.044C289.442 320.106 296.209 313.069 300.89 303.931C305.571 294.794 307.911 283.985 307.911 271.504Z"/>
<path clip-path="url(#TextBounds_2)" d="M350.939 256.425C350.939 248.727 351.932 242.241 353.917 236.967C355.903 231.694 358.789 227.689 362.574 224.953C366.36 222.217 370.942 220.849 376.319 220.849C381.198 220.849 385.382 221.934 388.868 224.104C392.355 226.274 395.038 229.256 396.918 233.052C398.798 236.847 399.76 241.18 399.805 246.049L430.407 246.049C430.407 245.414 430.407 244.79 430.407 244.177C430.407 243.564 430.407 242.939 430.407 242.305C430.407 235.097 429.065 228.554 426.381 222.673C423.697 216.793 419.936 211.735 415.099 207.498C410.262 203.261 404.527 200.004 397.895 197.727C391.262 195.45 383.986 194.311 376.065 194.311C363.712 194.311 353.228 196.842 344.612 201.904C335.997 206.966 329.449 214.133 324.967 223.406C320.485 232.679 318.244 243.706 318.244 256.489L318.244 270.518C318.244 283.19 320.485 294.156 324.967 303.415C329.449 312.675 335.997 319.829 344.612 324.878C353.228 329.926 363.712 332.451 376.065 332.451C386.602 332.451 395.961 330.474 404.142 326.521C412.322 322.568 418.745 317.058 423.41 309.99C428.074 302.923 430.407 294.718 430.407 285.376C430.407 284.741 430.407 284.096 430.407 283.44C430.407 282.784 430.407 282.139 430.407 281.505L399.805 281.505C399.76 286.192 398.798 290.376 396.918 294.058C395.038 297.739 392.355 300.635 388.868 302.746C385.382 304.857 381.198 305.912 376.319 305.912C370.942 305.912 366.36 304.556 362.574 301.843C358.789 299.13 355.903 295.154 353.917 289.914C351.932 284.675 350.939 278.273 350.939 270.707L350.939 256.425Z"/>
<path clip-path="url(#TextBounds_2)" d="M501.856 196.699L445.543 196.699L445.543 330L477.066 330L477.066 282.353L495.523 282.353L518.106 330L553.624 330L527.076 277.861C530.14 276.598 533.533 274.422 537.257 271.331C540.981 268.24 544.196 264.13 546.903 259.002C549.61 253.873 550.963 247.642 550.963 240.307C550.963 231.949 549.154 224.478 545.536 217.896C541.917 211.314 536.481 206.136 529.227 202.361C521.973 198.586 512.849 196.699 501.856 196.699ZM477.066 259.623L477.066 220.762L497.11 220.762C502.911 220.762 507.821 222.409 511.841 225.703C515.861 228.997 517.871 233.948 517.871 240.556C517.871 246.871 515.939 251.628 512.073 254.826C508.208 258.024 503.129 259.623 496.837 259.623L477.066 259.623Z"/>
<path clip-path="url(#TextBounds_2)" d="M192.897 576L223.971 576L223.971 514.443C223.971 509.889 224.69 506.222 226.127 503.444C227.563 500.665 229.469 498.644 231.842 497.379C234.215 496.115 236.81 495.482 239.625 495.482C242.434 495.482 245.018 496.078 247.378 497.269C249.738 498.46 251.64 500.43 253.082 503.177C254.524 505.925 255.246 509.714 255.246 514.545L255.246 576L284.987 576L284.987 514.638C284.987 510.37 285.638 506.825 286.942 504.003C288.246 501.181 290.084 499.056 292.457 497.626C294.831 496.197 297.592 495.482 300.743 495.482C303.663 495.482 306.292 496.106 308.629 497.352C310.967 498.599 312.823 500.578 314.198 503.29C315.573 506.001 316.261 509.559 316.261 513.964L316.261 576L347.336 576L347.336 504.531C347.336 494.299 344.445 486.017 338.663 479.684C332.882 473.351 324.682 470.185 314.064 470.185C308.148 470.185 303.012 471.124 298.653 473.002C294.295 474.881 290.769 477.231 288.075 480.053C285.381 482.875 283.52 485.762 282.492 488.715L281.236 488.715C280.165 485.034 278.38 481.809 275.882 479.04C273.383 476.271 270.197 474.103 266.321 472.535C262.446 470.968 257.861 470.185 252.565 470.185C246.995 470.185 242.295 471.117 238.463 472.98C234.632 474.844 231.586 477.151 229.327 479.902C227.068 482.652 225.5 485.348 224.624 487.987L223.082 487.987L223.082 471.718L192.897 471.718L192.897 576Z"/>
<path clip-path="url(#TextBounds_2)" d="M459.249 471.718L426.245 471.718L406.929 549.941L405.744 549.941L387.125 471.718L352.832 471.718L387.462 575.503L386.881 577.997C386.334 582.389 384.63 585.565 381.771 587.526C378.911 589.488 374.552 590.468 368.692 590.468C366.99 590.468 365.29 590.409 363.594 590.29C361.899 590.171 360.606 590.015 359.717 589.823L359.717 611.283C361.446 611.628 363.795 611.929 366.764 612.186C369.732 612.444 372.504 612.572 375.08 612.572C387.852 612.572 398.044 609.963 405.655 604.745C413.266 599.527 419.438 590.628 424.17 578.046L426.807 571.044C427.963 567.802 429.579 563.053 431.656 556.796C433.733 550.539 436.191 543.077 439.029 534.408C441.867 525.74 444.991 516.108 448.401 505.514C451.811 494.92 455.427 483.655 459.249 471.718Z"/>
</g>
<path d="M180 168.5L180 242.479L180 295.228L180 344.813" fill="none" opacity="1" stroke="#3897f1" stroke-linecap="butt" stroke-linejoin="round" stroke-width="8"/>
<path d="M562.766 179.69L562.766 360.926" fill="none" opacity="1" stroke="#3897f1" stroke-linecap="butt" stroke-linejoin="miter" stroke-width="8"/>
<path d="M535.945 371.633C535.945 356.821 547.953 344.813 562.766 344.813C577.578 344.813 589.586 356.821 589.586 371.633C589.586 386.446 577.578 398.453 562.766 398.453C547.953 398.453 535.945 386.446 535.945 371.633Z" fill="#358fe4" fill-rule="nonzero" opacity="1" stroke="none"/>
<path d="M153.18 152.87C153.18 138.058 165.188 126.05 180 126.05C194.812 126.05 206.82 138.058 206.82 152.87C206.82 167.683 194.812 179.69 180 179.69C165.188 179.69 153.18 167.683 153.18 152.87Z" fill="#358fe4" fill-rule="nonzero" opacity="1" stroke="none"/>
</g>
</svg>
